<svg width="90" height="90" viewBox="0 0 90 90" fill="none" xmlns="http://www.w3.org/2000/svg">
<g clip-path="url(#clip0_1_104)">
<path d="M40.489 86.6348C39.215 86.4972 38.7676 86.2925 38.6643 85.8855L36.7937 85.9874C37.0679 87.0296 38.1046 87.5741 40.3704 87.8187C42.7181 88.0721 44.0498 87.5898 44.1657 86.5161C44.2678 85.5697 43.4957 84.9616 41.5199 84.6747L39.6441 84.3986C38.9645 84.2977 38.7833 84.186 38.8078 83.9586C38.8373 83.6856 39.3778 83.6242 40.8975 83.7883C42.0077 83.9081 42.5522 84.151 42.6506 84.6035L44.5849 84.5085C44.2822 83.3895 43.293 82.8317 41.0089 82.5851C38.3518 82.2983 37.0111 82.7796 36.8824 83.9717C36.7842 84.8816 37.5014 85.4009 39.3934 85.6972L41.2611 85.9632L41.5282 86.0068C42.1376 86.1141 42.3202 86.2151 42.2985 86.4158C42.2681 86.6979 41.7538 86.7713 40.489 86.6348ZM35.9859 81.9707L34.1639 81.3305L33.5298 83.1352C33.1688 84.1628 32.1676 84.4998 30.8464 84.0356C29.9138 83.7079 29.5846 83.1266 29.8576 82.3494L30.6495 80.0957L28.8275 79.4555L27.9082 82.0719C27.3954 83.5312 28.026 84.6356 29.7617 85.2454C30.8842 85.6398 31.997 85.5652 32.8381 85.104L31.8885 87.8068L33.7104 88.4469L35.9859 81.9707ZM24.3917 76.6303C22.1533 75.1702 20.4118 75.1597 19.4867 76.5779C18.5716 77.9807 19.2884 79.5957 21.5115 81.0458C23.7269 82.4909 25.5091 82.5061 26.4242 81.1033C27.3393 79.7004 26.6071 78.0755 24.3917 76.6303ZM23.6217 77.8108C24.8865 78.6359 25.2334 79.3103 24.7684 80.0232C24.3033 80.7361 23.5464 80.6904 22.2815 79.8653C21.0167 79.0402 20.6774 78.3709 21.1425 77.658C21.6075 76.945 22.3568 76.9858 23.6217 77.8108ZM18.8324 72.301L17.7181 71.0262L14.1196 71.8741L15.4473 68.4282L14.3389 67.1603L8.89239 68.5781L10.2055 70.0804L13.4356 69.1169L12.2113 72.3751L13.3738 73.7051L16.7408 72.8286L15.3736 75.9929L16.753 77.571L18.8324 72.301ZM12.3227 64.5573L11.4312 62.8442L9.88049 63.6511C8.93868 64.1412 7.99367 63.6734 7.31768 62.3744C7.15713 62.0659 7.03328 61.7486 6.97571 61.4793L5.35481 62.2506C5.38504 62.3483 5.4533 62.5191 5.50823 62.6247C6.08282 63.7289 7.03992 64.438 8.0745 64.6219L7.0418 65.314L7.85722 66.881L12.3227 64.5573ZM8.67736 55.3369C8.00748 53.0058 7.24419 52.0729 6.12258 51.9476L6.33301 53.906C6.72158 53.9658 7.05555 54.4983 7.40186 55.7035C7.76082 56.9526 7.68904 57.6969 7.1754 58.0636L5.47922 52.1611C5.30197 52.1739 5.1587 52.2056 4.93879 52.2688C3.41699 52.7061 2.93815 54.4531 3.62825 56.8545C4.33858 59.3264 5.73714 60.5148 7.29413 60.0674C8.8951 59.6073 9.40285 57.8615 8.67736 55.3369ZM4.84844 56.4944C4.51729 55.342 4.55652 54.6832 5.03871 54.3066L6.1914 58.3178C5.60042 58.2495 5.19223 57.6907 4.84844 56.4944ZM7.27605 46.633C7.16572 44.2101 6.6399 43.1255 5.57803 42.7432L5.328 44.6969C5.69207 44.8453 5.89327 45.4408 5.95031 46.6934C6.00943 47.9917 5.76678 48.6991 5.18206 48.9364L4.90269 42.8014C4.7273 42.7728 4.5806 42.7703 4.35202 42.7807C2.77027 42.8527 1.8989 44.4408 2.01256 46.9368C2.12956 49.506 3.21397 50.9867 4.83229 50.913C6.49633 50.8373 7.39555 49.2571 7.27605 46.633ZM3.28303 46.8698C3.22849 45.6721 3.41961 45.0404 3.97607 44.786L4.16593 48.9552C3.60694 48.7516 3.33965 48.1133 3.28303 46.8698ZM7.27736 39.5718L0.459238 38.776L0.235352 40.6942L7.05347 41.49L7.27736 39.5718ZM6.78348 27.8673L6.92868 27.555C7.37342 26.6334 7.68243 26.3395 8.06152 26.3648L8.54451 24.5548C7.46865 24.4924 6.62954 25.3092 5.69463 27.3876C4.72592 29.5411 4.77162 30.9566 5.75656 31.3997C6.62464 31.7901 7.44209 31.2446 8.32738 29.455L9.17137 27.7572C9.47801 27.1425 9.64033 27.0047 9.849 27.0986C10.0994 27.2112 9.99015 27.7442 9.36312 29.1381C8.90505 30.1564 8.50533 30.5988 8.0446 30.5522L7.53532 32.4206C8.69298 32.4797 9.53001 31.7121 10.4724 29.617C11.5688 27.1797 11.5269 25.7558 10.4334 25.264C9.59871 24.8885 8.88266 25.4094 8.01447 27.1164L7.18258 28.8096L7.05839 29.05C6.76739 29.5961 6.61481 29.7384 6.43069 29.6556C6.17194 29.5392 6.26159 29.0275 6.78348 27.8673ZM12.6048 25.0395L13.7764 23.5043L12.2557 22.3438C11.3899 21.6831 11.3785 20.6267 12.2281 19.5135C12.8277 18.7277 13.4824 18.5941 14.1372 19.0938L16.0362 20.543L17.2078 19.0078L15.0032 17.3254C13.7736 16.387 12.5284 16.6457 11.4124 18.1082C10.6906 19.054 10.4179 20.1354 10.5968 21.0778L8.31942 19.3399L7.14784 20.8751L12.6048 25.0395ZM21.2536 15.654C23.3294 13.9706 23.873 12.3161 22.8065 11.0009C21.7516 9.7 19.9946 9.88748 17.9331 11.5593C15.8786 13.2253 15.3181 14.9172 16.373 16.2181C17.428 17.519 19.1992 17.32 21.2536 15.654ZM20.3658 14.5592C19.1929 15.5104 18.4447 15.634 17.9085 14.9729C17.3724 14.3118 17.6479 13.6052 18.8208 12.654C19.9938 11.7028 20.7349 11.585 21.271 12.2461C21.8072 12.9072 21.5388 13.608 20.3658 14.5592ZM27.0935 11.6865L28.6496 11.0192L28.9516 7.33443L31.8208 9.65923L33.3686 8.99548L33.6978 3.37705L31.864 4.16344L31.7855 7.53327L29.063 5.36467L27.4395 6.06088L27.236 9.53409L24.6468 7.2585L22.7205 8.08457L27.0935 11.6865ZM36.4535 7.88635L38.3585 7.56992L38.0721 5.84541C37.8982 4.79807 38.6359 4.04464 40.0805 3.8047C40.4236 3.74771 40.7636 3.72834 41.0375 3.75708L40.8067 1.97693C40.7044 1.97537 40.5209 1.9873 40.4035 2.0068C39.1756 2.21075 38.2047 2.90085 37.7091 3.82745L37.3712 2.63105L35.6287 2.92048L36.4535 7.88635ZM46.3606 7.26284C48.7847 7.34153 49.907 6.90178 50.3708 5.8729L48.4425 5.47148C48.2663 5.82289 47.6569 5.9771 46.4036 5.93642C45.1047 5.89425 44.4183 5.59725 44.2273 4.99582L50.3654 5.19508C50.4076 5.02246 50.4215 4.87639 50.4289 4.6477C50.4803 3.06514 48.9649 2.07274 46.4676 1.99167C43.8971 1.90822 42.3365 2.87403 42.2839 4.49317C42.2298 6.15806 43.7352 7.17761 46.3606 7.26284ZM46.4355 3.2635C47.6338 3.3024 48.2487 3.54214 48.459 4.11672L44.2877 3.98131C44.5342 3.43987 45.1914 3.22311 46.4355 3.2635ZM55.0697 8.60379C57.4094 9.24281 58.6031 9.07547 59.293 8.18229L57.5104 7.34439C57.2575 7.64532 56.6289 7.65392 55.4193 7.32356C54.1656 6.98114 53.5669 6.533 53.5206 5.90364L59.445 7.52169C59.5261 7.36358 59.5735 7.22473 59.6338 7.004C60.051 5.47656 58.8072 4.15962 56.3968 3.50131C53.9158 2.82371 52.1737 3.40104 51.7469 4.9638C51.308 6.57071 52.5357 7.91172 55.0697 8.60379ZM56.0705 4.73098C57.2271 5.04687 57.7696 5.42275 57.8408 6.03044L53.8147 4.93084C54.1802 4.46137 54.8697 4.40302 56.0705 4.73098ZM61.7963 10.7858L64.6672 4.55058L62.913 3.74291L60.0422 9.97816L61.7963 10.7858ZM73.0619 13.9194L73.3143 14.1536C74.0545 14.8603 74.2389 15.2448 74.0983 15.5977L75.6719 16.6142C76.0623 15.6097 75.5433 14.56 73.8534 13.0309C72.1024 11.4466 70.7415 11.0546 70.0169 11.8554C69.3782 12.5612 69.6458 13.5069 71.0762 14.8998L72.4319 16.2253C72.9225 16.7062 73.0036 16.903 72.8501 17.0727C72.6659 17.2763 72.1924 17.0084 71.059 15.9828C70.231 15.2337 69.9331 14.7172 70.1192 14.2932L68.4982 13.2337C68.0857 14.3171 68.5585 15.3497 70.262 16.891C72.2438 18.6841 73.6115 19.0823 74.4159 18.1932C75.03 17.5145 74.7547 16.673 73.3976 15.3217L72.0425 14.0092L71.852 13.817C71.4219 13.3721 71.3335 13.1832 71.4689 13.0335C71.6593 12.8231 72.1185 13.0658 73.0619 13.9194ZM73.9665 20.3326L75.0685 21.9185L76.6394 20.827C77.5338 20.2054 78.5427 20.5186 79.3418 21.6685C79.9059 22.4803 79.8323 23.1444 79.1559 23.6144L77.1942 24.9776L78.2962 26.5635L80.5736 24.9809C81.8438 24.0983 81.9794 22.8338 80.9296 21.3231C80.2506 20.346 79.3049 19.7549 78.353 19.6362L80.7056 18.0014L79.6035 16.4155L73.9665 20.3326ZM80.2438 31.4573C81.2041 33.9513 82.61 34.9792 84.1902 34.3708C85.7532 33.769 86.1173 32.04 85.1636 29.563C84.2132 27.0946 82.777 26.0391 81.2139 26.6409C79.6509 27.2428 79.2934 28.9889 80.2438 31.4573ZM81.5592 30.9508C81.0165 29.5415 81.13 28.7917 81.9243 28.4859C82.7186 28.18 83.3056 28.6602 83.8482 30.0695C84.3909 31.4788 84.2742 32.2201 83.4798 32.5259C82.6855 32.8317 82.1018 32.3601 81.5592 30.9508ZM82.2082 38.2191L82.3613 39.9054L85.7718 41.3327L82.6733 43.3418L82.8256 45.0189L88.0665 47.0704L87.8861 45.0833L84.7059 43.966L87.6105 42.048L87.4507 40.2888L84.2109 39.0206L87.1759 37.2626L86.9864 35.1752L82.2082 38.2191ZM82.9354 48.3096L82.6542 50.2202L84.3837 50.4748C85.4341 50.6293 85.9259 51.5621 85.7127 53.0109C85.6621 53.355 85.5765 53.6847 85.4654 53.9366L87.2309 54.2612C87.2637 54.1642 87.3084 53.9858 87.3258 53.8681C87.507 52.6366 87.1468 51.5012 86.416 50.7461L87.6585 50.7902L87.9157 49.0426L82.9354 48.3096ZM80.4865 57.917C79.6631 60.1983 79.7348 61.4016 80.5702 62.1604L81.5474 60.4503C81.2676 60.1742 81.3091 59.5469 81.7348 58.3675C82.176 57.145 82.6704 56.5839 83.3015 56.5879L81.2166 62.3645C81.3677 62.458 81.5023 62.5163 81.7176 62.594C83.2069 63.1315 84.6188 61.9967 85.467 59.6464C86.3401 57.2273 85.9034 55.4447 84.3796 54.8947C82.8128 54.3292 81.3782 55.4462 80.4865 57.917ZM84.2672 59.2231C83.8602 60.3509 83.4423 60.8617 82.8309 60.8843L84.2477 56.9586C84.6866 57.3603 84.6898 58.0523 84.2672 59.2231ZM76.5255 65.784C75.1943 67.8114 74.9842 68.9984 75.6203 69.9306L76.9684 68.4946C76.7604 68.1609 76.9466 67.5605 77.6348 66.5124C78.3482 65.426 78.9595 64.9952 79.5723 65.1458L76.2015 70.2794C76.3268 70.4055 76.4442 70.4935 76.6355 70.6191C77.959 71.4882 79.596 70.7126 80.9675 68.624C82.3791 66.4741 82.3688 64.6388 81.0146 63.7497C79.6221 62.8354 77.9672 63.5882 76.5255 65.784ZM79.899 67.9333C79.2409 68.9356 78.7157 69.3353 78.1158 69.2151L80.4065 65.7264C80.7399 66.219 80.5822 66.8928 79.899 67.9333ZM72.3686 71.515L73.677 70.0946L78.7257 74.7455L77.4173 76.1659L72.3686 71.515Z" fill="white"/>
</g>
<circle cx="45.0001" cy="45" r="3.05085" fill="black"/>
<defs>
<clipPath id="clip0_1_104">
<rect width="88.4746" height="86.9492" fill="white" transform="translate(0 1.52542)"/>
</clipPath>
</defs>
</svg>
